<svg xmlns="http://www.w3.org/2000/svg" width="38" height="38" viewBox="0 0 38 38"><g><g><g><path fill="#028090" d="M20.836 17.783a3.073 3.073 0 0 1 2.455-3.01 2.452 2.452 0 0 0 2.443 2.396c1.33 0 2.41-1.07 2.443-2.395a3.073 3.073 0 0 1 2.455 3.009v1.843h-1.224v-2.457h-1.225v2.457h-4.898v-2.457H22.06v2.457h-1.224zm.608-6.758a.609.609 0 0 1 0-1.216h.608v1.216zm.618-4.285a1.84 1.84 0 0 1 1.84-1.834h3.683a1.84 1.84 0 0 1 1.841 1.834v1.729a1.838 1.838 0 0 1-1.227-1.73.612.612 0 0 0-.614-.61.612.612 0 0 0-.613.61c0 .85-1.857 1.834-3.07 1.834h-1.84zm7.962 4.285h-.608V9.809h.608a.609.609 0 0 1 0 1.216zm-3.06 3.687a1.227 1.227 0 0 1-2.45 0zm-3.677-3.672V9.812h.613c.988 0 2.58-.538 3.523-1.458.201.326.462.612.768.841v1.845c0 1.355-1.1 2.456-2.452 2.456a2.456 2.456 0 0 1-2.452-2.456zm7.968 9.801a.613.613 0 0 0 .613-.613v-2.451a4.296 4.296 0 0 0-3.469-4.21c.353-.37.628-.814.803-1.306h.827a1.841 1.841 0 0 0 1.84-1.84c0-.797-.515-1.471-1.227-1.725V6.745a3.068 3.068 0 0 0-3.064-3.065H23.9a3.068 3.068 0 0 0-3.064 3.065v1.951a1.836 1.836 0 0 0-1.226 1.726c0 1.014.825 1.839 1.839 1.839h.827c.175.492.45.936.803 1.306a4.296 4.296 0 0 0-3.469 4.21v2.451c0 .339.274.613.613.613z"/></g><g><path fill="#028090" d="M25.738 1.226c6.083 0 11.032 4.949 11.032 11.032S31.821 23.29 25.738 23.29s-11.032-4.949-11.032-11.032S19.655 1.226 25.738 1.226zm0 23.29c6.76 0 12.258-5.499 12.258-12.258C37.996 5.5 32.497 0 25.738 0 18.98 0 13.48 5.499 13.48 12.258c0 6.76 5.499 12.258 12.258 12.258z"/></g><g><path fill="#028090" d="M4.29 21.09l2.69 2.688-2.392 1.435a.613.613 0 0 0-.118.958l7.355 7.355a.612.612 0 0 0 .959-.118l1.434-2.391 2.69 2.69-2.378 2.377a2.364 2.364 0 0 1-1.659.687c-.618 0-1.222-.25-1.66-.687l-9.298-9.3a2.332 2.332 0 0 1-.687-1.658c0-.627.244-1.216.687-1.66zm6.055 15.86a3.597 3.597 0 0 0 2.526 1.047c.94 0 1.86-.382 2.526-1.047l2.81-2.81a.612.612 0 0 0 0-.867l-3.677-3.677a.612.612 0 0 0-.958.117l-1.435 2.392L5.89 25.86l2.392-1.435a.613.613 0 0 0 .118-.959L4.724 19.79a.612.612 0 0 0-.867 0l-2.81 2.81A3.544 3.544 0 0 0 0 25.127c0 .954.371 1.851 1.046 2.525z"/></g><g><path fill="#028090" d="M18.994 30.632a.609.609 0 1 1 .001-1.217.609.609 0 0 1-.001 1.217zm1.843-.603A1.841 1.841 0 0 0 19 28.19a1.841 1.841 0 0 0-1.839 1.839c0 1.013.825 1.838 1.839 1.838a1.841 1.841 0 0 0 1.838-1.838z"/></g><g><path fill="#028090" d="M23.288 28.192a1.225 1.225 0 0 1 2.447 0 1.225 1.225 0 0 1-2.447 0zm3.675 0c0-1.352-1.1-2.452-2.451-2.452a2.454 2.454 0 0 0-2.452 2.452c0 1.352 1.1 2.451 2.452 2.451 1.352 0 2.451-1.1 2.451-2.451z"/></g></g></g></svg>