<svg xmlns="http://www.w3.org/2000/svg" width="95" height="81" viewBox="0 0 95 81"><g><g><g><path d="M90.344 58.918c-.932 0-1.69-.76-1.69-1.696v-1.697h3.381v3.393zM79.233 78.005c-3.554 0-6.446-2.9-6.446-6.464 0-3.563 2.892-6.463 6.446-6.463s6.446 2.9 6.446 6.463c0 3.564-2.892 6.464-6.446 6.464zm-52.36 0c-3.553 0-6.445-2.9-6.445-6.464 0-3.563 2.892-6.463 6.446-6.463s6.445 2.9 6.445 6.463c0 3.564-2.891 6.464-6.445 6.464zM69.615 46.17v-9.752h13.217l2.43 9.752zm0-16.121H80.82a3.282 3.282 0 0 1 3.272 3.284v.1H69.614zM40.537 17.4c1.488-4.592 3.741-10.964 5.18-12.857a3.948 3.948 0 0 1 5.54-.749 3.98 3.98 0 0 1 .746 5.56c-.516.677-2.256 2.36-8.123 6.02a163.4 163.4 0 0 1-3.343 2.026zm-8.456-2.026c-5.867-3.66-7.608-5.343-8.123-6.02a3.98 3.98 0 0 1 .746-5.56 3.944 3.944 0 0 1 5.54.749c1.439 1.893 3.692 8.265 5.18 12.857a163.626 163.626 0 0 1-3.343-2.026zM88.35 46.26l-2.46-9.875a1.492 1.492 0 0 0 1.177-1.46v-1.592c0-3.457-2.803-6.27-6.247-6.27H69.614v-3.283a3.083 3.083 0 0 0-3.074-3.085H45.704l12.662-5.082a1.494 1.494 0 0 0 .828-1.94 1.486 1.486 0 0 0-1.933-.832l-10.367 4.161c3.159-2.034 6.284-4.273 7.474-5.838 2.317-3.048 1.73-7.419-1.307-9.743-3.037-2.325-7.393-1.736-9.71 1.311-1.692 2.228-3.925 8.486-5.37 12.896-1.446-4.41-3.68-10.668-5.372-12.896-2.316-3.047-6.672-3.636-9.71-1.311-3.037 2.324-3.623 6.695-1.307 9.743 1.19 1.566 4.316 3.804 7.475 5.838L18.7 12.842a1.485 1.485 0 0 0-1.934.831 1.494 1.494 0 0 0 .829 1.94l12.661 5.083H9.421a3.083 3.083 0 0 0-3.075 3.085v27.067a1.49 1.49 0 0 0 1.488 1.493 1.49 1.49 0 0 0 1.488-1.493V23.781a.1.1 0 0 1 .099-.1H66.54a.1.1 0 0 1 .099.1v27.068a1.49 1.49 0 0 0 1.487 1.492 1.49 1.49 0 0 0 1.488-1.492v-1.693H87.17c2.159.002 3.992 1.424 4.621 3.384h-4.625a1.49 1.49 0 0 0-1.488 1.493v3.184c0 2.579 2.091 4.677 4.661 4.677h1.686v6.568h-3.89c-1.277-3.702-4.784-6.37-8.902-6.37-4.118 0-7.626 2.668-8.903 6.37h-.716V57.217a1.49 1.49 0 0 0-1.488-1.493 1.49 1.49 0 0 0-1.487 1.493v11.245H35.777c-1.278-3.702-4.785-6.37-8.903-6.37s-7.626 2.667-8.903 6.37H9.42a.1.1 0 0 1-.1-.1v-3.284h6.446a1.49 1.49 0 0 0 1.488-1.493 1.49 1.49 0 0 0-1.488-1.492H1.487A1.49 1.49 0 0 0 0 63.585a1.49 1.49 0 0 0 1.488 1.493h4.859v3.284a3.083 3.083 0 0 0 3.074 3.085h8.035c0 .033-.003.066-.003.1 0 5.212 4.226 9.453 9.42 9.453 5.195 0 9.421-4.241 9.421-9.454l-.002-.099h33.523c0 .033-.003.066-.003.1 0 5.212 4.226 9.453 9.42 9.453 5.195 0 9.421-4.241 9.421-9.454l-.002-.099h4.861A1.49 1.49 0 0 0 95 69.954V54.033c0-3.932-2.89-7.198-6.65-7.772z"/></g><g><path d="M27 68c-1.654 0-3 1.346-3 3s1.346 3 3 3 3-1.346 3-3-1.346-3-3-3z"/></g><g><path d="M79 68c-1.654 0-3 1.346-3 3s1.346 3 3 3 3-1.346 3-3-1.346-3-3-3z"/></g><g><path fill="#fd495c" d="M61.524 62H39.476c-.815 0-1.476.672-1.476 1.5s.661 1.5 1.476 1.5h22.048c.815 0 1.476-.672 1.476-1.5s-.661-1.5-1.476-1.5z"/></g><g><path fill="#fd495c" d="M23.513 56H4.487C3.666 56 3 56.672 3 57.5S3.665 59 4.487 59h19.026c.821 0 1.487-.672 1.487-1.5s-.666-1.5-1.487-1.5z"/></g><g><path d="M23.564 34h-6.128A1.43 1.43 0 0 0 16 35.424v12.152A1.43 1.43 0 0 0 17.436 49a1.43 1.43 0 0 0 1.436-1.424v-4.652h3.16a1.43 1.43 0 0 0 1.436-1.424 1.43 1.43 0 0 0-1.436-1.424h-3.16v-3.228h4.692A1.43 1.43 0 0 0 25 35.424 1.43 1.43 0 0 0 23.564 34z"/></g><g><path d="M32.5 41.585H30v-4.737h2.5c1.379 0 2.5 1.063 2.5 2.369 0 1.306-1.121 2.368-2.5 2.368zm3.005 2.007c1.5-.934 2.495-2.543 2.495-4.37C38 36.342 35.533 34 32.5 34h-4c-.828 0-1.5.638-1.5 1.424v12.152c0 .786.672 1.424 1.5 1.424.829 0 1.5-.638 1.5-1.424v-3.133h2.497l2.755 3.923c.289.411.764.634 1.25.634.285 0 .574-.077.83-.24.69-.436.875-1.32.416-1.974z"/></g><g><path d="M47.564 46.152h-4.692v-3.233c.032.003.064.005.096.005h3.064a1.43 1.43 0 0 0 1.436-1.424 1.43 1.43 0 0 0-1.436-1.424h-3.064c-.032 0-.064.003-.096.005v-3.233h4.692A1.43 1.43 0 0 0 49 35.424 1.43 1.43 0 0 0 47.564 34h-6.128A1.43 1.43 0 0 0 40 35.424v12.152A1.43 1.43 0 0 0 41.436 49h6.128A1.43 1.43 0 0 0 49 47.576a1.43 1.43 0 0 0-1.436-1.424z"/></g><g><path d="M58.564 46.152h-4.692v-3.228H55.5a1.43 1.43 0 0 0 1.436-1.424 1.43 1.43 0 0 0-1.436-1.424h-1.628v-3.228h4.692A1.43 1.43 0 0 0 60 35.424 1.43 1.43 0 0 0 58.564 34h-6.128A1.43 1.43 0 0 0 51 35.424v12.152A1.43 1.43 0 0 0 52.436 49h6.128A1.43 1.43 0 0 0 60 47.576a1.43 1.43 0 0 0-1.436-1.424z"/></g></g></g></svg>